#N canvas 626 129 654 636 10;
#X obj 123 19 import mrpeach;
#X obj 123 -7 bng 15 250 50 0 empty empty empty 17 7 0 10 -262144 -1
-1;
#X obj 123 67 udpreceive 8001;
#X obj 123 95 unpackOSC;
#X msg 71 40 status;
#X obj 19 463 *~;
#X obj 123 254 vline~;
#X msg 123 227 1 50;
#X msg 167 227 0 3000;
#X obj 123 199 sel 1;
#X obj 167 199 sel 0;
#X msg 19 279 open peri16.wav;
#X obj 14 -2 loadbang;
#X obj 32 28 tgl 15 0 empty empty empty 17 7 0 10 -262144 -1 -1 0 1
;
#N canvas 0 22 450 300 (subpatch) 0;
#X array channelL 3.42178e+06 float 2 black black;
#X coords 0 1 3.42178e+06 -1 200 140 1;
#X restore 264 162 graph;
#N canvas 0 22 450 300 (subpatch) 0;
#X array channelR 3.42178e+06 float 2 black black;
#X coords 0 1 3.42178e+06 -1 200 140 1;
#X restore 265 323 graph;
#X msg 19 304 read -resize \$1 channelL channelR;
#X obj 19 326 soundfiler;
#X floatatom 36 349 24 0 0 0 - - -, f 24;
#X obj 19 391 expr 48000 / $f1;
#X floatatom 41 414 5 0 0 0 - - -, f 5;
#X obj 19 436 phasor~;
#X obj 19 564 *~;
#X obj 51 564 *~;
#X obj 19 597 dac~ 1 2 3 4;
#X obj 36 370 s sampleSize;
#X obj -3 469 vsl 15 128 0 1 0 0 empty empty empty 0 -9 0 10 -262144
-1 -1 0 1;
#X obj 78 446 r sampleSize;
#X obj 265 468 hsl 195 15 0 1 0 0 empty empty empty -2 -8 0 10 -262144
-1 -1 3830 1;
#X obj 19 494 tabread4~ channelL;
#X obj 49 525 tabread4~ channelR;
#X obj 169 480 snapshot~;
#X obj 169 459 metro 50;
#X obj 169 440 tgl 15 0 empty empty empty 17 7 0 10 -262144 -1 -1 1
1;
#X floatatom 169 502 12 0 0 0 - - -, f 12;
#X obj 169 523 /;
#X obj 262 502 r sampleSize;
#X floatatom 169 545 5 0 0 0 - - -, f 5;
#X obj 26 194 bng 15 250 50 0 empty empty empty 17 7 0 10 -262144 -1
-1;
#X msg 28 75 \; pd dsp 1;
#X obj 123 123 routeOSC /gf_tunnel;
#X obj 123 151 routeOSC /hand_sensor/;
#X obj 123 175 tgl 15 0 empty empty empty 17 7 0 10 -262144 -1 -1 0
1;
#X connect 1 0 0 0;
#X connect 2 0 3 0;
#X connect 3 0 40 0;
#X connect 4 0 2 0;
#X connect 5 0 29 0;
#X connect 5 0 30 0;
#X connect 5 0 31 0;
#X connect 6 0 22 1;
#X connect 6 0 23 1;
#X connect 7 0 6 0;
#X connect 8 0 6 0;
#X connect 9 0 7 0;
#X connect 10 0 8 0;
#X connect 11 0 16 0;
#X connect 12 0 39 0;
#X connect 12 0 38 0;
#X connect 12 0 33 0;
#X connect 13 0 39 0;
#X connect 16 0 17 0;
#X connect 17 0 18 0;
#X connect 17 0 19 0;
#X connect 18 0 25 0;
#X connect 19 0 20 0;
#X connect 19 0 21 0;
#X connect 21 0 5 0;
#X connect 22 0 24 0;
#X connect 22 0 24 3;
#X connect 22 0 24 1;
#X connect 23 0 24 1;
#X connect 23 0 24 3;
#X connect 23 0 24 2;
#X connect 26 0 23 1;
#X connect 26 0 22 1;
#X connect 27 0 5 1;
#X connect 29 0 22 0;
#X connect 30 0 23 0;
#X connect 31 0 34 0;
#X connect 32 0 31 0;
#X connect 33 0 32 0;
#X connect 34 0 35 0;
#X connect 35 0 37 0;
#X connect 36 0 35 1;
#X connect 37 0 28 0;
#X connect 38 0 11 0;
#X connect 40 0 41 0;
#X connect 41 0 42 0;
#X connect 42 0 9 0;
#X connect 42 0 10 0;
